# Blender v2.79 (sub 0) OBJ File: 'rubiks.blend'
# www.blender.org
mtllib rubiks.mtl
o Cube
v 0.998138 0.175396 -0.995732
v 0.987478 0.180712 1.004232
v -1.000000 0.180122 1.000000
v -1.000000 0.180122 -1.000000
v 1.012281 2.175339 -1.000972
v 1.001620 2.180655 0.998992
v -1.000000 2.180122 1.000000
v -1.000000 2.180122 -1.000000
v -0.417003 0.208240 -0.972921
v -0.417003 0.208240 0.970592
v -0.417003 2.132457 -0.972921
v -0.417003 2.132457 0.970592
v 0.364361 0.208058 -0.972118
v 0.354001 0.213224 0.971361
v 0.377967 2.132221 -0.977160
v 0.367608 2.137387 0.966319
v 0.971394 0.205465 -0.323524
v -0.952288 0.208240 -0.327581
v 0.985001 2.129628 -0.328565
v -0.952288 2.132457 -0.327581
v -0.417003 2.132457 -0.327581
v -0.417003 0.208240 -0.327581
v 0.360921 0.209773 -0.326789
v 0.374527 2.133936 -0.331831
v 0.967827 0.207244 0.345713
v 0.981433 2.131407 0.340672
v -0.417003 2.132457 0.341668
v 0.370960 2.135715 0.337406
v -0.952288 0.208240 0.341668
v -0.952288 2.132457 0.341668
v -0.417003 0.208240 0.341668
v 0.357354 0.211552 0.342448
v 0.984397 1.556069 -0.972396
v 0.974037 1.561235 0.971083
v -0.952288 1.560597 0.970592
v -0.952288 1.560597 -0.972921
v -0.417003 1.560597 -0.972921
v -0.417003 1.560597 0.970592
v 0.363564 1.565543 0.967817
v 0.373924 1.560377 -0.975661
v -0.952288 1.560597 -0.327581
v 0.980957 1.557784 -0.327067
v -0.952288 1.560597 0.341668
v 0.977389 1.559563 0.342170
v -0.417003 0.870360 0.970592
v 0.358683 0.875325 0.969626
v -0.952288 0.870360 -0.327581
v 0.976076 0.867566 -0.325258
v -0.952288 0.870360 0.341668
v 0.972509 0.869345 0.343978
v 0.979516 0.865851 -0.970587
v 0.969156 0.871017 0.972892
v -0.952288 0.870360 0.970592
v -0.952288 0.870360 -0.972921
v -0.417003 0.870360 -0.972921
v 0.369043 0.870159 -0.973853
v 0.990842 0.179034 0.372999
v 1.004984 2.178977 0.367759
v -0.417003 2.132457 0.368756
v 0.370816 2.135787 0.364494
v -1.000000 0.180122 0.368756
v -1.000000 2.180122 0.368756
v -0.417003 0.208240 0.368756
v 0.357209 0.211624 0.369535
v -0.952288 1.560597 0.368756
v 0.977245 1.559635 0.369257
v 0.972364 0.869417 0.371066
v -0.952288 0.870360 0.368756
v -1.000000 0.180122 0.308563
v -1.000000 2.180122 0.308563
v -0.417003 0.208240 0.308563
v 0.357530 0.211464 0.309344
v 0.991163 0.178874 0.312808
v 1.005305 2.178817 0.307568
v -0.417003 2.132457 0.308563
v 0.371136 2.135627 0.304302
v 0.977566 1.559475 0.309066
v -0.952288 1.560597 0.308563
v -0.952288 0.870360 0.308563
v 0.972685 0.869257 0.310874
v -1.000000 0.180122 -0.305972
v -1.000000 2.180122 -0.305971
v -0.417003 0.208240 -0.305971
v 0.360806 0.209831 -0.305180
v -0.952288 1.560597 -0.305972
v -0.952288 0.870360 -0.305972
v 0.994439 0.177241 -0.301716
v 1.008581 2.177184 -0.306956
v -0.417003 2.132457 -0.305971
v 0.374412 2.133993 -0.310222
v 0.980842 1.557842 -0.305458
v 0.975961 0.867624 -0.303649
v -1.000000 0.180122 -0.353009
v -1.000000 2.180122 -0.353009
v -0.417003 0.208240 -0.353009
v 0.361056 0.209706 -0.352216
v 0.994689 0.177116 -0.348752
v 1.008832 2.177059 -0.353992
v -0.417003 2.132457 -0.353009
v 0.374663 2.133868 -0.357258
v 0.981092 1.557717 -0.352494
v -0.952288 1.560597 -0.353009
v -0.952288 0.870360 -0.353009
v 0.976211 0.867499 -0.350686
v 0.386839 0.179710 -0.999002
v 0.376179 0.185026 1.000962
v 0.400982 2.179653 -1.004242
v 0.390321 2.184969 0.995722
v 0.397060 2.133777 -0.331710
v 0.383454 0.209614 -0.326669
v 0.393493 2.135556 0.337527
v 0.379887 0.211393 0.342568
v 0.396457 1.560218 -0.975541
v 0.386097 1.565384 0.967938
v 0.381216 0.875166 0.969746
v 0.391576 0.870000 -0.973732
v 0.393686 2.183291 0.364489
v 0.379543 0.183348 0.369729
v 0.379864 0.183188 0.309538
v 0.394007 2.183131 0.304298
v 0.397282 2.181498 -0.310226
v 0.383140 0.181555 -0.304986
v 0.383391 0.181430 -0.352022
v 0.397533 2.181373 -0.357262
v 0.343893 0.180122 -1.000000
v 0.343893 0.180122 1.000000
v 0.343894 2.180122 -1.000000
v 0.343893 2.180122 1.000000
v 0.343893 0.208240 -0.327581
v 0.343893 2.132457 -0.327581
v 0.343893 0.208240 0.341668
v 0.343893 2.132457 0.341668
v 0.343893 1.560597 0.970592
v 0.343894 1.560597 -0.972921
v 0.343893 0.870360 0.970592
v 0.343894 0.870360 -0.972921
v 0.343893 0.180122 0.368756
v 0.343893 2.180122 0.368756
v 0.343893 2.180122 0.308564
v 0.343893 0.180122 0.308563
v 0.343893 0.180122 -0.305971
v 0.343893 2.180122 -0.305971
v 0.343893 2.180122 -0.353008
v 0.343893 0.180122 -0.353009
v -0.390187 0.180122 -1.000000
v -0.390187 0.180122 1.000000
v -0.390187 2.180122 -1.000000
v -0.390187 2.180122 1.000000
v -0.390187 0.208240 -0.327581
v -0.390187 0.208240 0.341668
v -0.390187 1.560597 0.970592
v -0.390187 1.560597 -0.972921
v -0.390187 0.870360 0.970592
v -0.390187 0.870360 -0.972921
v -0.390187 0.180122 0.368756
v -0.390187 0.180122 0.308563
v -0.390187 0.180122 -0.305971
v -0.390187 0.180122 -0.353009
v -0.390187 2.132457 -0.327581
v -0.390187 2.132457 0.341668
v -0.390187 2.180122 0.368756
v -0.390187 2.180122 0.308563
v -0.390187 2.180122 -0.305971
v -0.390187 2.180122 -0.353009
v -0.442675 0.180122 -1.000000
v -0.442675 0.180122 1.000000
v -0.442675 2.180122 -1.000000
v -0.442676 2.180122 1.000000
v -0.442675 2.132457 -0.327581
v -0.442675 0.208240 -0.327581
v -0.442675 2.132457 0.341668
v -0.442675 0.208240 0.341668
v -0.442675 1.560597 -0.972921
v -0.442675 1.560597 0.970592
v -0.442675 0.870360 0.970592
v -0.442675 0.870360 -0.972921
v -0.442675 2.180122 0.368756
v -0.442675 0.180122 0.368756
v -0.442675 0.180122 0.308563
v -0.442675 2.180122 0.308563
v -0.442675 2.180122 -0.305971
v -0.442675 0.180122 -0.305971
v -0.442675 0.180122 -0.353009
v -0.442675 2.180122 -0.353009
v 1.007770 1.537426 -0.999301
v 0.997109 1.542742 1.000664
v -1.000000 1.542191 1.000000
v -1.000000 1.542191 -1.000000
v -0.417003 1.542191 -0.972921
v 0.373793 1.541972 -0.975613
v -0.417003 1.542191 0.970592
v 0.363434 1.547137 0.967866
v -0.952288 1.542191 -0.327581
v 0.980826 1.539379 -0.327019
v -0.952288 1.542191 0.341668
v 0.977259 1.541157 0.342218
v 1.000474 1.541065 0.369431
v -1.000000 1.542191 0.368756
v -1.000000 1.542191 0.308563
v 1.000794 1.540905 0.309239
v 1.004070 1.539271 -0.305285
v -1.000000 1.542191 -0.305972
v -1.000000 1.542191 -0.353009
v 1.004321 1.539146 -0.352321
v 0.396471 1.541741 -1.002571
v 0.385810 1.547057 0.997394
v 0.343894 1.542191 -1.000000
v 0.343893 1.542191 1.000000
v -0.390187 1.542191 -1.000000
v -0.390187 1.542191 1.000000
v -0.442675 1.542191 -1.000000
v -0.442675 1.542191 1.000000
v 1.008034 1.574871 -0.999399
v 0.997374 1.580187 1.000565
v -1.000000 1.579637 1.000000
v -1.000000 1.579637 -1.000000
v -0.417003 1.579637 -0.972921
v 0.374058 1.579416 -0.975711
v -0.417003 1.579637 0.970592
v 0.363699 1.584582 0.967768
v -0.952288 1.579637 -0.327581
v 0.981091 1.576823 -0.327117
v -0.952288 1.579637 0.341668
v 0.977524 1.578602 0.342120
v -1.000000 1.579637 0.368756
v 1.000738 1.578509 0.369333
v 1.001059 1.578349 0.309141
v -1.000000 1.579637 0.308563
v 1.004335 1.576716 -0.305383
v -1.000000 1.579637 -0.305972
v 1.004586 1.576591 -0.352419
v -1.000000 1.579637 -0.353009
v 0.396736 1.579185 -1.002669
v 0.386075 1.584501 0.997295
v 0.343894 1.579637 -1.000000
v 0.343893 1.579637 1.000000
v -0.390187 1.579637 -1.000000
v -0.390187 1.579637 1.000000
v -0.442675 1.579637 -1.000000
v -0.442675 1.579637 1.000000
v -0.417003 0.893788 0.970592
v 0.358849 0.898753 0.969565
v -0.952288 0.893788 -0.327581
v 0.976241 0.890994 -0.325320
v -0.952288 0.893788 0.341668
v 0.972674 0.892773 0.343917
v 0.995889 0.892680 0.371130
v -1.000000 0.893788 0.368756
v -1.000000 0.893788 0.308563
v 0.996210 0.892520 0.310938
v 0.999485 0.890887 -0.303586
v -1.000000 0.893788 -0.305972
v -1.000000 0.893788 -0.353009
v 0.999736 0.890762 -0.350622
v 0.381225 0.898672 0.999092
v 0.343893 0.893788 1.000000
v -0.390187 0.893788 1.000000
v -0.442675 0.893788 1.000000
v 1.003185 0.889042 -0.997602
v 0.992524 0.894358 1.002362
v -1.000000 0.893788 1.000000
v -1.000000 0.893788 -1.000000
v -0.417003 0.893788 -0.972921
v 0.369208 0.893587 -0.973914
v 0.391886 0.893356 -1.000872
v 0.343894 0.893788 -1.000000
v -0.390187 0.893788 -1.000000
v -0.442675 0.893788 -1.000000
v -0.417003 0.831079 0.970592
v 0.358406 0.836046 0.969729
v -0.952288 0.831079 -0.327581
v 0.975798 0.828287 -0.325156
v -0.952288 0.831079 0.341668
v 0.972231 0.830065 0.344081
v 1.002741 0.826334 -0.997438
v 0.992081 0.831650 1.002527
v -1.000000 0.831079 1.000000
v -1.000000 0.831079 -1.000000
v -0.417003 0.831079 -0.972921
v 0.368765 0.830880 -0.973750
v -1.000000 0.831079 0.368756
v 0.995445 0.829973 0.371294
v 0.995766 0.829813 0.311102
v -1.000000 0.831079 0.308563
v 0.999042 0.828179 -0.303421
v -1.000000 0.831079 -0.305972
v 0.999292 0.828054 -0.350458
v -1.000000 0.831079 -0.353009
v 0.380782 0.835965 0.999257
v 0.391442 0.830649 -1.000708
v 0.343893 0.831079 1.000000
v 0.343894 0.831079 -1.000000
v -0.390187 0.831079 1.000000
v -0.390187 0.831079 -1.000000
v -0.442675 0.831079 1.000000
v -0.442675 0.831079 -1.000000
vn 0.0000 0.0000 -1.0000
vn 0.0053 -0.0027 -1.0000
vn 0.0000 1.0000 0.0000
vn 0.0071 1.0000 -0.0026
vn -0.7105 0.0000 -0.7036
vn -0.7389 -0.0000 0.6738
vn -0.8715 0.4903 -0.0000
vn -0.7237 -0.6902 -0.0000
vn -0.7847 -0.6198 -0.0025
vn -0.9010 0.4338 -0.0060
vn -0.7970 0.0072 0.6040
vn -0.7652 0.0037 -0.6438
vn -0.6097 0.5834 0.5366
vn -0.4869 -0.7636 0.4241
vn -0.4170 -0.7954 0.4398
vn -0.5441 0.6122 0.5738
vn -0.4126 -0.0000 -0.9109
vn 0.7328 -0.0034 0.6805
vn -0.0000 0.4707 0.8823
vn -0.0000 -0.6707 0.7417
vn -0.4937 -0.0000 -0.8696
vn -0.6493 0.6216 0.4382
vn -0.5054 -0.7937 0.3384
vn -0.4346 -0.8290 0.3520
vn -0.5850 0.6582 0.4739
vn 0.8140 -0.0042 0.5809
vn -0.0000 0.5704 0.8213
vn -0.0000 -0.7622 0.6474
vn 0.8113 0.5085 0.2885
vn -0.5380 0.6972 -0.4738
vn 0.7888 0.4949 0.3645
vn -0.5065 0.6564 -0.5591
vn -0.4395 -0.5193 -0.7329
vn -0.4540 0.5611 0.6922
vn -0.3938 0.5737 0.7182
vn -0.3805 -0.5359 -0.7536
vn 0.0000 -0.8180 -0.5752
vn -0.3599 0.9330 0.0000
vn -0.0000 0.8477 0.5305
vn 0.6244 0.7811 0.0013
vn 0.8631 0.5051 0.0033
vn -0.0000 0.5993 0.8005
vn -0.6356 0.7720 -0.0000
vn -0.4568 0.3119 0.8331
vn -0.5236 0.3049 0.7955
vn -0.6217 0.3775 -0.6863
vn 0.8769 0.2557 0.4070
vn -0.6829 0.4147 -0.6014
vn 0.9082 0.2644 0.3245
vn -0.4605 -0.4427 -0.7694
vn -0.4006 -0.4585 -0.7933
vn 0.0000 -0.7562 -0.6543
vn 0.8897 0.2561 -0.3779
vn 0.7988 0.4969 -0.3392
vn -0.6149 0.5910 -0.5222
vn -0.4878 -0.7741 -0.4035
vn -0.4219 -0.8047 -0.4177
vn -0.5550 0.6245 -0.5495
vn 0.7608 -0.0071 -0.6490
vn 0.0000 0.4941 -0.8694
vn 0.0000 -0.6938 -0.7202
vn -0.7277 0.4420 0.5244
vn -0.5591 0.7246 0.4029
vn -0.5701 -0.0000 0.8216
vn -0.5720 0.5501 -0.6084
vn -0.4661 -0.7408 -0.4838
vn -0.4023 -0.7674 -0.4993
vn -0.5126 0.5768 -0.6361
vn 0.6830 -0.0067 -0.7304
vn 0.0000 0.4129 -0.9108
vn 0.0000 -0.6094 -0.7929
vn 0.7738 0.4809 -0.4123
vn 0.8553 0.2458 -0.4561
vn -0.6668 0.4050 0.6256
vn -0.5300 0.6869 0.4972
vn -0.4703 -0.0000 0.8825
vn -0.0001 -0.6115 -0.7913
vn 0.0078 0.4105 -0.9118
vn -0.0011 -0.6957 -0.7183
vn 0.0081 0.4918 -0.8707
vn -0.0019 -0.7580 -0.6523
vn -0.0000 0.6014 0.7989
vn 0.0032 0.8490 0.5283
vn -0.0027 -0.8195 -0.5730
vn -0.0088 -0.7604 0.6494
vn -0.0003 0.5726 0.8198
vn -0.0087 -0.6687 0.7434
vn -0.0014 0.4730 0.8811
vn 0.8362 -0.5485 0.0029
vn 0.8235 0.5674 0.0014
vn 0.3613 0.6264 -0.6907
vn 0.6239 -0.6562 -0.4244
vn 0.8943 -0.4475 0.0030
vn 0.8433 0.5374 0.0015
vn 0.4232 0.6804 -0.5984
vn 0.7637 -0.5741 -0.2952
vn 0.3927 -0.4620 -0.7952
vn 0.6609 0.2618 0.7033
vn 0.2760 -0.5584 -0.7824
vn 0.4742 0.5490 0.6882
vn 0.5777 0.6621 0.4774
vn 0.7553 -0.6022 0.2586
vn 0.5309 0.6180 0.5798
vn 0.6114 -0.6914 0.3848
vn 0.9405 -0.3398 0.0029
vn 0.8647 0.5022 0.0016
vn 0.8339 -0.0021 0.5518
vn 0.7675 -0.0035 -0.6410
vn 0.8804 0.4742 0.0000
vn 0.7385 -0.6743 0.0000
vn 0.4172 -0.7618 -0.4956
vn 0.5291 0.5700 -0.6286
vn 0.4372 -0.7983 -0.4143
vn 0.5718 0.6159 -0.5419
vn 0.4154 -0.4551 -0.7876
vn 0.4727 0.3089 0.8253
vn 0.4085 0.5697 0.7132
vn 0.3949 -0.5324 -0.7487
vn 0.4501 -0.8219 0.3491
vn 0.6017 0.6482 0.4666
vn 0.4322 -0.7892 0.4363
vn 0.5608 0.6041 0.5662
vn 0.7257 0.0000 -0.6880
vn 0.7533 0.0000 0.6576
vn 0.3910 0.5454 -0.7414
vn 0.0000 0.8270 -0.5622
vn 0.8759 -0.0025 0.4825
vn 0.2835 0.5669 -0.7734
vn 0.0088 0.8255 -0.5643
vn -0.3767 0.5489 -0.7462
vn -0.4280 0.5345 -0.7288
vn 0.4129 -0.5567 0.7208
vn -0.0000 -0.8394 0.5435
vn 0.6496 -0.4656 0.6010
vn 0.5901 -0.0030 -0.8074
vn -0.0088 -0.8380 0.5457
vn -0.5384 -0.6746 0.5051
vn 0.6263 -0.7796 0.0054
vn -0.3706 -0.9288 0.0000
vn 0.7730 -0.4815 -0.4130
vn -0.5689 -0.7129 0.4100
vn 0.7984 -0.4974 -0.3394
vn 0.8112 -0.5057 0.2937
vn -0.5467 -0.6850 -0.4815
vn 0.7883 -0.4915 0.3701
vn -0.5138 -0.6437 -0.5672
vn -0.4664 -0.5380 0.7022
vn -0.3981 -0.5607 0.7260
vn 0.8488 -0.4307 0.3068
vn -0.5963 -0.6072 -0.5251
vn 0.8228 -0.4175 0.3857
vn -0.5542 -0.5643 -0.6118
vn -0.4909 -0.4599 0.7399
vn -0.4212 -0.4821 0.7682
vn -0.4408 -0.8976 -0.0000
vn -0.0000 -0.7821 0.6231
vn 0.7031 -0.7110 0.0056
vn 0.8339 -0.4231 -0.3544
vn -0.6255 -0.6369 0.4507
vn 0.8051 -0.4085 -0.4301
vn -0.5855 -0.5962 0.5493
vn -0.0089 -0.7805 0.6252
vn 0.7309 -0.3641 0.5772
vn 0.4365 -0.4783 0.7621
vn 0.6747 -0.0034 -0.7381
vn 0.4462 0.2916 -0.8461
vn 0.0000 0.5676 -0.8233
vn 0.4339 0.2912 -0.8526
vn 0.9233 -0.0027 0.3841
vn 0.0084 0.5654 -0.8248
vn -0.4875 0.2846 -0.8254
vn -0.4308 0.2941 -0.8532
vn -0.0000 -0.0000 1.0000
vn -0.0053 0.0027 1.0000
vn -1.0000 -0.0000 -0.0000
vn 1.0000 -0.0071 0.0053
vn 0.0000 -1.0000 0.0000
vn -0.0071 -1.0000 0.0026
usemtl Material.008
s off
f 296//1 165//1 4//1 278//1
f 275//2 1//2 105//2 290//2
f 292//1 125//1 145//1 294//1
f 127//1 235//1 237//1 147//1
f 5//2 213//2 233//2 107//2
f 167//1 239//1 216//1 8//1
f 207//1 266//1 267//1 209//1
f 185//2 259//2 265//2 205//2
f 211//1 268//1 262//1 188//1
usemtl Material.002
f 177//3 62//3 7//3 168//3
f 181//3 82//3 70//3 180//3
f 167//3 8//3 94//3 184//3
f 5//4 107//4 124//4 98//4
f 88//4 121//4 120//4 74//4
f 58//4 117//4 108//4 6//4
f 127//3 147//3 164//3 143//3
f 142//3 163//3 162//3 139//3
f 138//3 161//3 148//3 128//3
usemtl Material.003
f 294//5 145//5 9//5 279//5
f 238//6 148//6 12//6 219//6
f 161//7 59//7 12//7 148//7
f 155//8 146//8 10//8 63//8
f 118//9 106//9 14//9 64//9
f 117//10 60//10 16//10 108//10
f 234//11 108//11 16//11 220//11
f 290//12 105//12 13//12 280//12
f 124//13 100//13 24//13 109//13
f 123//14 110//14 23//14 96//14
f 158//15 149//15 22//15 95//15
f 164//16 99//16 21//16 159//16
f 230//17 82//17 20//17 221//17
f 231//18 98//18 19//18 222//18
f 184//19 94//19 20//19 169//19
f 183//20 170//20 18//20 93//20
f 225//21 62//21 30//21 223//21
f 120//22 76//22 28//22 111//22
f 119//23 112//23 32//23 72//23
f 156//24 150//24 31//24 71//24
f 162//25 75//25 27//25 160//25
f 227//26 74//26 26//26 224//26
f 180//27 70//27 30//27 171//27
f 179//28 172//28 29//28 69//28
f 200//29 77//29 44//29 196//29
f 198//30 65//30 43//30 195//30
f 204//31 101//31 42//31 194//31
f 202//32 85//32 41//32 193//32
f 233//33 113//33 40//33 218//33
f 206//34 114//34 39//34 192//34
f 210//35 151//35 38//35 191//35
f 237//36 152//36 37//36 217//36
f 239//37 173//37 36//37 216//37
f 203//38 102//38 36//38 188//38
f 212//39 174//39 35//39 187//39
f 197//40 66//40 34//40 186//40
f 282//41 67//41 52//41 276//41
f 295//42 175//42 53//42 277//42
f 288//43 103//43 54//43 278//43
f 293//44 153//44 45//44 269//44
f 289//45 115//45 46//45 270//45
f 286//46 86//46 47//46 271//46
f 287//47 104//47 48//47 272//47
f 281//48 68//48 49//48 273//48
f 283//49 80//49 50//49 274//49
f 265//50 116//50 56//50 264//50
f 267//51 154//51 55//51 263//51
f 268//52 176//52 54//52 262//52
f 277//43 53//43 68//43 281//43
f 274//53 50//53 67//53 282//53
f 196//54 44//54 66//54 197//54
f 187//38 35//38 65//38 198//38
f 111//55 28//55 60//55 117//55
f 112//56 118//56 64//56 32//56
f 150//57 155//57 63//57 31//57
f 160//58 27//58 59//58 161//58
f 224//59 26//59 58//59 226//59
f 171//60 30//60 62//60 177//60
f 172//61 178//61 61//61 29//61
f 285//41 92//41 80//41 283//41
f 273//62 49//62 79//62 284//62
f 195//63 43//63 78//63 199//63
f 201//40 91//40 77//40 200//40
f 163//7 89//7 75//7 162//7
f 157//8 156//8 71//8 83//8
f 122//9 119//9 72//9 84//9
f 121//10 90//10 76//10 120//10
f 223//64 30//64 70//64 228//64
f 109//65 24//65 90//65 121//65
f 110//66 122//66 84//66 23//66
f 149//67 157//67 83//67 22//67
f 159//68 21//68 89//68 163//68
f 222//69 19//69 88//69 229//69
f 169//70 20//70 82//70 181//70
f 170//71 182//71 81//71 18//71
f 194//72 42//72 91//72 201//72
f 272//73 48//73 92//73 285//73
f 284//43 79//43 86//43 286//43
f 199//38 78//38 85//38 202//38
f 275//41 51//41 104//41 287//41
f 271//74 47//74 103//74 288//74
f 193//75 41//75 102//75 203//75
f 185//40 33//40 101//40 204//40
f 147//7 11//7 99//7 164//7
f 145//8 158//8 95//8 9//8
f 105//9 123//9 96//9 13//9
f 107//10 15//10 100//10 124//10
f 221//76 20//76 94//76 232//76
f 17//77 87//77 122//77 110//77
f 19//78 109//78 121//78 88//78
f 25//79 57//79 118//79 112//79
f 26//80 111//80 117//80 58//80
f 259//81 51//81 116//81 265//81
f 276//82 52//82 115//82 289//82
f 186//83 34//83 114//83 206//83
f 213//84 33//84 113//84 233//84
f 73//85 25//85 112//85 119//85
f 74//86 120//86 111//86 26//86
f 97//87 17//87 110//87 123//87
f 98//88 124//88 109//88 19//88
f 13//89 96//89 144//89 125//89
f 15//90 127//90 143//90 100//90
f 24//91 130//91 142//91 90//91
f 23//92 84//92 141//92 129//92
f 84//93 72//93 140//93 141//93
f 90//94 142//94 139//94 76//94
f 28//95 132//95 138//95 60//95
f 32//96 64//96 137//96 131//96
f 264//97 56//97 136//97 266//97
f 270//98 46//98 135//98 291//98
f 218//99 40//99 134//99 235//99
f 192//100 39//100 133//100 208//100
f 76//101 139//101 132//101 28//101
f 72//102 32//102 131//102 140//102
f 100//103 143//103 130//103 24//103
f 96//104 23//104 129//104 144//104
f 64//105 14//105 126//105 137//105
f 60//106 138//106 128//106 16//106
f 220//107 16//107 128//107 236//107
f 280//108 13//108 125//108 292//108
f 130//70 159//70 163//70 142//70
f 132//60 160//60 161//60 138//60
f 131//61 137//61 155//61 150//61
f 266//52 136//52 154//52 267//52
f 291//42 135//42 153//42 293//42
f 235//37 134//37 152//37 237//37
f 208//39 133//39 151//39 210//39
f 139//27 162//27 160//27 132//27
f 140//28 131//28 150//28 156//28
f 143//19 164//19 159//19 130//19
f 144//20 129//20 149//20 158//20
f 11//109 167//109 184//109 99//109
f 9//110 95//110 183//110 165//110
f 22//111 83//111 182//111 170//111
f 21//112 169//112 181//112 89//112
f 89//109 181//109 180//109 75//109
f 83//110 71//110 179//110 182//110
f 31//113 63//113 178//113 172//113
f 27//114 171//114 177//114 59//114
f 263//115 55//115 176//115 268//115
f 269//116 45//116 175//116 295//116
f 191//117 38//117 174//117 212//117
f 217//118 37//118 173//118 239//118
f 71//119 31//119 172//119 179//119
f 75//120 180//120 171//120 27//120
f 95//121 22//121 170//121 183//121
f 99//122 184//122 169//122 21//122
f 279//123 9//123 165//123 296//123
f 219//124 12//124 168//124 240//124
f 59//109 177//109 168//109 12//109
f 63//110 10//110 166//110 178//110
f 241//124 191//124 212//124 258//124
f 37//125 189//125 211//125 173//125
f 134//126 207//126 209//126 152//126
f 242//127 192//127 208//127 256//127
f 40//128 190//128 207//128 134//128
f 33//129 185//129 205//129 113//129
f 243//76 193//76 203//76 253//76
f 244//69 194//69 201//69 251//69
f 245//64 195//64 199//64 249//64
f 246//59 196//59 197//59 247//59
f 173//126 211//126 188//126 36//126
f 152//130 209//130 189//130 37//130
f 113//131 205//131 190//131 40//131
f 257//6 210//6 191//6 241//6
f 255//11 206//11 192//11 242//11
f 252//17 202//17 193//17 243//17
f 254//18 204//18 194//18 244//18
f 248//21 198//21 195//21 245//21
f 250//26 200//26 196//26 246//26
f 38//132 219//132 240//132 174//132
f 11//123 217//123 239//123 167//123
f 133//133 236//133 238//133 151//133
f 39//134 220//134 236//134 133//134
f 15//135 218//135 235//135 127//135
f 34//136 214//136 234//136 114//136
f 41//137 221//137 232//137 102//137
f 33//138 213//138 231//138 101//138
f 78//139 228//139 230//139 85//139
f 42//140 222//140 229//140 91//140
f 43//141 223//141 228//141 78//141
f 91//138 229//138 227//138 77//138
f 44//142 224//142 226//142 66//142
f 35//139 215//139 225//139 65//139
f 147//5 237//5 217//5 11//5
f 107//12 233//12 218//12 15//12
f 77//143 227//143 224//143 44//143
f 65//144 225//144 223//144 43//144
f 101//145 231//145 222//145 42//145
f 85//146 230//146 221//146 41//146
f 114//147 234//147 220//147 39//147
f 151//148 238//148 219//148 38//148
f 102//139 232//139 216//139 36//139
f 174//133 240//133 215//133 35//133
f 66//138 226//138 214//138 34//138
f 80//149 250//149 246//149 50//149
f 68//150 248//150 245//150 49//150
f 104//151 254//151 244//151 48//151
f 86//152 252//152 243//152 47//152
f 115//153 255//153 242//153 46//153
f 153//154 257//154 241//154 45//154
f 103//155 253//155 262//155 54//155
f 175//156 258//156 261//156 53//156
f 67//157 247//157 260//157 52//157
f 50//158 246//158 247//158 67//158
f 53//155 261//155 248//155 68//155
f 49//159 245//159 249//159 79//159
f 92//157 251//157 250//157 80//157
f 48//160 244//160 251//160 92//160
f 79//155 249//155 252//155 86//155
f 47//161 243//161 253//161 103//161
f 51//157 259//157 254//157 104//157
f 52//162 260//162 255//162 115//162
f 46//163 242//163 256//163 135//163
f 135//156 256//156 257//156 153//156
f 45//164 241//164 258//164 175//164
f 189//123 263//123 268//123 211//123
f 190//165 264//165 266//165 207//165
f 209//5 267//5 263//5 189//5
f 205//12 265//12 264//12 190//12
f 55//166 279//166 296//166 176//166
f 10//124 269//124 295//124 166//124
f 136//167 292//167 294//167 154//167
f 56//168 280//168 292//168 136//168
f 14//169 270//169 291//169 126//169
f 51//170 275//170 290//170 116//170
f 18//76 271//76 288//76 93//76
f 17//69 272//69 285//69 87//69
f 29//64 273//64 284//64 69//64
f 25//59 274//59 282//59 57//59
f 73//26 283//26 274//26 25//26
f 61//21 281//21 273//21 29//21
f 97//18 287//18 272//18 17//18
f 81//17 286//17 271//17 18//17
f 106//11 289//11 270//11 14//11
f 146//6 293//6 269//6 10//6
f 116//171 290//171 280//171 56//171
f 154//172 294//172 279//172 55//172
f 176//167 296//167 278//167 54//167
usemtl Material.004
f 240//173 168//173 7//173 215//173
f 214//174 6//174 108//174 234//174
f 236//173 128//173 148//173 238//173
f 256//173 208//173 210//173 257//173
f 260//174 186//174 206//174 255//174
f 258//173 212//173 187//173 261//173
f 126//173 291//173 293//173 146//173
f 2//174 276//174 289//174 106//174
f 166//173 295//173 277//173 3//173
usemtl Material.005
f 232//175 94//175 8//175 216//175
f 215//175 7//175 62//175 225//175
f 228//175 70//175 82//175 230//175
f 249//175 199//175 202//175 252//175
f 261//175 187//175 198//175 248//175
f 253//175 203//175 188//175 262//175
f 69//175 284//175 286//175 81//175
f 3//175 277//175 281//175 61//175
f 93//175 288//175 278//175 4//175
usemtl Material.006
f 226//176 58//176 6//176 214//176
f 229//176 88//176 74//176 227//176
f 213//176 5//176 98//176 231//176
f 259//176 185//176 204//176 254//176
f 251//176 201//176 200//176 250//176
f 247//176 197//176 186//176 260//176
f 1//176 275//176 287//176 97//176
f 87//176 285//176 283//176 73//176
f 57//176 282//176 276//176 2//176
usemtl Material.009
f 178//177 166//177 3//177 61//177
f 182//177 179//177 69//177 81//177
f 165//177 183//177 93//177 4//177
f 1//178 97//178 123//178 105//178
f 87//178 73//178 119//178 122//178
f 57//178 2//178 106//178 118//178
f 125//177 144//177 158//177 145//177
f 129//71 141//71 157//71 149//71
f 141//177 140//177 156//177 157//177
f 137//177 126//177 146//177 155//177
